# xmcd
#
# Track frame offsets:
#	150
#	20042
#	40907
#	60012
#	71568
#	89025
#	111667
#	130749
#	144247
#	164507
#	183638
#	198955
#
# Disc length: 3018 seconds
#
# Revision: 1
# Processed by: cddbd v1.4PL0 Copyright (c) Steve Scherf et al.
# Submitted via: audiograbber 1.81.03
#
DISCID=ad0bc80c
DTITLE=Beverly Jo Scott - A Retrospective
DYEAR=1997
DGENRE=Blues
TTITLE0=Rip The Sack
TTITLE1=Magalie
TTITLE2=Glory
TTITLE3=The Letter
TTITLE4=Hey Nanna
TTITLE5=Believe
TTITLE6=Oh Desire
TTITLE7=Have You No Eyes
TTITLE8=My Soul's On Fire
TTITLE9=Make It Rough
TTITLE10=One Hundred and Three
TTITLE11=Alabam'
EXTD=
EXTT0=
EXTT1=
EXTT2=
EXTT3=
EXTT4=
EXTT5=
EXTT6=
EXTT7=
EXTT8=
EXTT9=
EXTT10=
EXTT11=
PLAYORDER=
